<svg width="381" height="278" viewBox="0 0 381 278" fill="none" xmlns="http://www.w3.org/2000/svg">
<path fill-rule="evenodd" clip-rule="evenodd" d="M304.094 0C337.06 0 368.029 18.4292 384.013 48.1206C414.224 104.64 395.635 161.631 356.089 190.103C353.468 191.99 352.836 195.763 354.698 198.436C376.692 230.006 382.175 274.697 357.04 318.927C341.056 347.595 310.587 364.488 278.619 364.488H163.735L107.791 365C106.293 365 105.294 363.464 105.793 361.928L179.957 160.078C180.719 158.004 182.629 156.61 184.788 156.552L230.395 155.322C234.131 155.221 236.797 159.004 235.534 162.612L186.767 301.908C185.524 305.459 188.089 309.201 191.767 309.201H271.626C308.589 309.201 336.061 265.175 307.091 225.245C300.597 216.031 290.108 210.912 279.119 210.912H249.678C246.009 210.912 243.445 207.186 244.672 203.638L260.382 158.228C261.134 156.053 263.139 154.6 265.388 154.6H271.626H296.601C333.564 154.6 361.036 110.575 332.065 70.6452C325.572 61.4306 315.082 56.3114 304.094 56.3114H44.8546C27.8717 56.3114 12.8868 45.0491 7.39229 28.6676L0.286398 7.20299C-0.883792 3.66823 1.67788 0 5.31652 0H304.094ZM39.1141 84.4328C37.9998 80.9116 40.5583 77.2996 44.1668 77.2996H202.69C229.922 77.2996 248.929 103.526 241.79 129.998C241.198 132.195 239.177 133.611 236.956 133.611H93.3C70.3231 133.611 50.3432 118.765 42.8508 96.2407L39.1141 84.4328Z" fill="url(#paint0_linear_28_3379)"/>
<defs>
<linearGradient id="paint0_linear_28_3379" x1="199.5" y1="0" x2="199.5" y2="365" gradientUnits="userSpaceOnUse">
<stop stop-color="#4F2D8C"/>
<stop offset="1" stop-color="#4F2D8C" stop-opacity="0"/>
</linearGradient>
</defs>
</svg>
